<svg version="1.0" xmlns="http://www.w3.org/2000/svg" width="341.333" height="341.333" viewBox="0 0 256 256"><path d="M113.9 6.4c-6.3 1.7-12.9 5.7-17.3 10.7-3.9 4.3-8.6 13.1-8.6 16.2 0 2-.8 2.3-6.5 3.1-7.1 1-8.9 1.5-16.1 5.1-9.6 4.7-18.1 13.3-22.7 22.8-4.3 8.8-5 11.8-6.2 25.7-.4 4.7-.9 9.6-1 11-.1 1.4-.6 6.1-.9 10.5-.4 4.4-.9 9.1-1.1 10.5-.2 1.4-.7 6.1-1 10.5-.4 4.4-.8 9.1-1 10.5-.1 1.4-.5 5.9-.9 10s-.9 8.8-1.1 10.5c-.2 1.6-.6 6.8-1 11.5s-.9 8.7-1.1 8.9c-.2.2-4.1.5-8.6.5-9.8.2-14 2.1-16.9 7.9-1.7 3.2-2 5.7-1.8 16.5.1 15.4 1.9 21.2 8.5 27.9 7 7.1 11.6 8.6 26.9 8.9 10.8.2 14 .7 19 2.6l6 2.3 65.5.3c66.7.3 73.6 0 80.3-3.5 2-1 6.7-1.5 15-1.7 11.1-.2 12.7-.5 17.7-3 7-3.5 12.3-9.2 14.8-15.9 2.9-7.7 3.1-29 .3-34.4-2.9-5.7-7.1-7.7-16.3-7.8-8.4-.1-9.1-.5-9.4-3.8-.1-1.2-.5-6.3-.8-11.2-.4-5-.9-11-1.1-13.5-.2-2.5-.7-7.7-1-11.5-.3-3.9-.7-9.1-.9-11.6-.2-2.5-.7-8.3-1.1-13-3-39.8-3.2-42-5.7-49.4-6-18.2-23.3-32.3-41.7-34.1-7.3-.7-8.1-1-8.1-3.1 0-3.4-5.1-12.8-9.3-17.1C151 8.3 141.8 5 127.5 5.1c-4.9 0-11.1.6-13.6 1.3zm29.2 11.1c6.1 3.1 8.8 5.5 11.4 10 5.2 8.8 7.3 8.1-26.6 8.1-16.4 0-29.9-.1-29.9-.2 0 0 .5-1.6 1.2-3.5 2.4-7.1 8.4-12.6 16.6-15.4 5.3-1.9 23-1.2 27.3 1z"/></svg>